<svg xmlns="http://www.w3.org/2000/svg" viewBox="0 0 16 16" shape-rendering="crispEdges" width="16" height="16">
  <!-- 16x16 pixel "</>" — yellow brackets, black outline -->
  <rect x="2" y="6" width="2" height="1" fill="#FFD600"/>
  <rect x="1" y="7" width="2" height="2" fill="#FFD600"/>
  <rect x="2" y="9" width="2" height="1" fill="#FFD600"/>
  <rect x="0" y="6" width="2" height="1" fill="#0A0A0A"/>
  <rect x="0" y="7" width="1" height="2" fill="#0A0A0A"/>
  <rect x="0" y="9" width="2" height="1" fill="#0A0A0A"/>
  <rect x="3" y="5" width="1" height="1" fill="#0A0A0A"/>
  <rect x="3" y="10" width="1" height="1" fill="#0A0A0A"/>

  <rect x="12" y="6" width="2" height="1" fill="#FFD600"/>
  <rect x="13" y="7" width="2" height="2" fill="#FFD600"/>
  <rect x="12" y="9" width="2" height="1" fill="#FFD600"/>
  <rect x="14" y="6" width="2" height="1" fill="#0A0A0A"/>
  <rect x="15" y="7" width="1" height="2" fill="#0A0A0A"/>
  <rect x="14" y="9" width="2" height="1" fill="#0A0A0A"/>
  <rect x="12" y="5" width="1" height="1" fill="#0A0A0A"/>
  <rect x="12" y="10" width="1" height="1" fill="#0A0A0A"/>

  <rect x="9" y="4" width="2" height="1" fill="#0A0A0A"/>
  <rect x="8" y="5" width="2" height="1" fill="#0A0A0A"/>
  <rect x="7" y="6" width="2" height="1" fill="#0A0A0A"/>
  <rect x="6" y="7" width="2" height="1" fill="#0A0A0A"/>
  <rect x="5" y="8" width="2" height="1" fill="#0A0A0A"/>
  <rect x="6" y="9" width="2" height="1" fill="#0A0A0A"/>
  <rect x="7" y="10" width="2" height="1" fill="#0A0A0A"/>
</svg>
