<svg xmlns="http://www.w3.org/2000/svg" viewBox="0 0 16 16" shape-rendering="crispEdges" width="16" height="16">
  <!-- 16x16 pixel rocket — cyan body, black outline, yellow flame -->
  <rect x="7" y="1" width="2" height="2" fill="#0A0A0A"/>
  <rect x="6" y="3" width="4" height="1" fill="#0A0A0A"/>
  <rect x="5" y="4" width="6" height="1" fill="#0A0A0A"/>
  <rect x="5" y="5" width="1" height="5" fill="#0A0A0A"/>
  <rect x="10" y="5" width="1" height="5" fill="#0A0A0A"/>
  <rect x="6" y="5" width="4" height="5" fill="#00BFFF"/>
  <rect x="7" y="6" width="2" height="2" fill="#FAF5E6"/>
  <rect x="7" y="6" width="2" height="2" stroke="#0A0A0A" stroke-width="0.5" fill="#FAF5E6"/>
  <rect x="4" y="10" width="2" height="1" fill="#0A0A0A"/>
  <rect x="10" y="10" width="2" height="1" fill="#0A0A0A"/>
  <rect x="3" y="11" width="2" height="2" fill="#0A0A0A"/>
  <rect x="11" y="11" width="2" height="2" fill="#0A0A0A"/>
  <rect x="6" y="10" width="4" height="1" fill="#0A0A0A"/>
  <rect x="6" y="11" width="1" height="1" fill="#FFD600"/>
  <rect x="9" y="11" width="1" height="1" fill="#FFD600"/>
  <rect x="7" y="12" width="2" height="2" fill="#FF1493"/>
  <rect x="7" y="14" width="2" height="1" fill="#FFD600"/>
</svg>
